<svg width="188" height="165" viewBox="0 0 188 165" fill="none" xmlns="http://www.w3.org/2000/svg">
<path d="M93.0293 106.046C94.0672 102.614 94.4334 99.9373 95.6512 97.7353C97.8882 93.6762 100.75 89.9681 103.127 85.9942C107.296 79.0443 111.153 71.9058 115.421 65.0167C117.835 61.1191 120.396 57.1605 123.63 53.9657C127.424 50.2209 132.773 50.0847 136.513 52.5836C140.642 55.3458 142.069 60.6403 139.509 66.0078C137.874 69.4473 135.853 72.9536 133.171 75.6084C124.642 84.0452 115.776 92.1552 106.917 100.255C104.65 102.327 102.077 104.2 99.3585 105.615C97.9425 106.371 95.8807 105.915 93.0293 106.046Z" fill="#EDBC5A"/>
<path d="M37.5786 100.572C36.6843 100.905 35.5991 101.683 34.65 101.546C33.6709 101.39 32.3766 100.538 32.0186 99.6642C31.1499 97.538 30.5951 95.2601 30.1775 92.9833C27.7439 79.6536 25.3328 66.3101 23.0709 52.9477C22.6298 50.3285 22.4907 47.5096 22.9613 44.9094C23.8578 39.9833 28.155 36.3386 32.5787 36.093C36.9437 35.8529 41.3241 39.2595 42.8245 44.1205C43.1688 45.2179 43.4602 46.3789 43.4994 47.5239C44.0342 64.2291 43.1801 80.8172 39.0564 97.1195C38.7874 98.2281 38.162 99.2439 37.5786 100.572Z" fill="#EDBC5A"/>
<path d="M163.752 119.955C162.221 121.01 159.894 123.292 157.102 124.402C146.973 128.452 136.697 132.138 126.448 135.868C125.009 136.391 123.389 136.516 121.841 136.59C119.883 136.703 117.597 136.589 117.171 134.28C116.943 133.062 117.936 131.449 118.735 130.264C119.345 129.362 120.517 128.801 121.49 128.16C130.94 121.99 140.343 115.738 149.904 109.744C152.48 108.134 155.463 106.96 158.422 106.251C161.148 105.606 163.891 106.366 165.499 109.104C166.982 111.643 167.083 114.234 165.656 116.842C165.28 117.544 164.844 118.183 163.752 119.955Z" fill="#EDBC5A"/>
</svg>
